<svg width="20" height="20" viewBox="0 0 20 20" fill="none" xmlns="http://www.w3.org/2000/svg">
<path d="M19.375 6.25001C19.3753 5.9074 19.2951 5.56951 19.1409 5.26356C18.9867 4.95761 18.7628 4.69216 18.4872 4.48859C18.2117 4.28502 17.8921 4.14903 17.5544 4.09158C17.2166 4.03412 16.8701 4.05681 16.5427 4.1578C16.2153 4.2588 15.9162 4.43528 15.6695 4.67303C15.4228 4.91079 15.2354 5.20316 15.1224 5.5266C15.0094 5.85004 14.974 6.1955 15.0189 6.53515C15.0639 6.8748 15.188 7.19914 15.3813 7.48204L13.2883 10.0602L11.4063 5.73439C11.7495 5.44549 11.9956 5.05805 12.1113 4.62457C12.2269 4.19108 12.2065 3.73253 12.0527 3.31106C11.8989 2.88959 11.6193 2.52559 11.2517 2.2684C10.8841 2.01121 10.4463 1.87326 9.99768 1.87326C9.54904 1.87326 9.11125 2.01121 8.74365 2.2684C8.37605 2.52559 8.09642 2.88959 7.94266 3.31106C7.7889 3.73253 7.76845 4.19108 7.88408 4.62457C7.99972 5.05805 8.24584 5.44549 8.58909 5.73439L6.71174 10.0578L4.61877 7.4797C4.88763 7.08575 5.02037 6.61472 4.99677 6.13836C4.97318 5.66199 4.79454 5.20639 4.48806 4.84094C4.18158 4.4755 3.76406 4.22023 3.29909 4.11402C2.83411 4.00781 2.34717 4.05647 1.91241 4.2526C1.47765 4.44873 1.11891 4.78158 0.890818 5.20045C0.662725 5.61933 0.577783 6.10127 0.648926 6.57288C0.72007 7.0445 0.943402 7.47994 1.28491 7.81289C1.62641 8.14583 2.06738 8.35804 2.54065 8.4172L3.6719 15.2055C3.72053 15.4973 3.87111 15.7625 4.09684 15.9537C4.32258 16.145 4.60884 16.25 4.90471 16.25H15.0953C15.3912 16.25 15.6775 16.145 15.9032 15.9537C16.1289 15.7625 16.2795 15.4973 16.3281 15.2055L17.4586 8.42032C17.9877 8.35425 18.4744 8.09724 18.8273 7.69759C19.1802 7.29794 19.3749 6.78317 19.375 6.25001ZM10 3.12501C10.1854 3.12501 10.3667 3.17999 10.5209 3.28301C10.675 3.38602 10.7952 3.53244 10.8662 3.70374C10.9371 3.87505 10.9557 4.06355 10.9195 4.24541C10.8833 4.42726 10.794 4.59431 10.6629 4.72542C10.5318 4.85653 10.3648 4.94582 10.1829 4.982C10.0011 5.01817 9.81256 4.9996 9.64126 4.92865C9.46995 4.85769 9.32353 4.73753 9.22052 4.58336C9.11751 4.42919 9.06252 4.24793 9.06252 4.06251C9.06252 3.81387 9.16129 3.57541 9.33711 3.3996C9.51293 3.22378 9.75138 3.12501 10 3.12501ZM1.87502 6.25001C1.87502 6.06459 1.93001 5.88333 2.03302 5.72916C2.13603 5.57499 2.28245 5.45483 2.45376 5.38387C2.62506 5.31292 2.81356 5.29435 2.99542 5.33052C3.17728 5.3667 3.34432 5.45599 3.47544 5.5871C3.60655 5.71821 3.69584 5.88526 3.73201 6.06711C3.76818 6.24897 3.74962 6.43747 3.67866 6.60878C3.6077 6.78008 3.48754 6.9265 3.33337 7.02951C3.1792 7.13253 2.99794 7.18751 2.81252 7.18751C2.56388 7.18751 2.32543 7.08874 2.14961 6.91292C1.97379 6.73711 1.87502 6.49865 1.87502 6.25001ZM17.1875 7.18751C17.0021 7.18751 16.8208 7.13253 16.6667 7.02951C16.5125 6.9265 16.3923 6.78008 16.3214 6.60878C16.2504 6.43747 16.2319 6.24897 16.268 6.06711C16.3042 5.88526 16.3935 5.71821 16.5246 5.5871C16.6557 5.45599 16.8228 5.3667 17.0046 5.33052C17.1865 5.29435 17.375 5.31292 17.5463 5.38387C17.7176 5.45483 17.864 5.57499 17.967 5.72916C18.07 5.88333 18.125 6.06459 18.125 6.25001C18.125 6.49865 18.0263 6.73711 17.8504 6.91292C17.6746 7.08874 17.4362 7.18751 17.1875 7.18751Z" fill="#FEE000"/>
</svg>
